<?xml version="1.0" encoding="UTF-8"?>
<svg xmlns="http://www.w3.org/2000/svg" xmlns:xlink="http://www.w3.org/1999/xlink" width="40" height="40" viewBox="0 0 40 40">
    <defs>
        <!-- 定义渐变 -->
        <linearGradient id="speedGradient" x1="0%" y1="0%" x2="100%" y2="0%">
            <stop offset="0%" style="stop-color:#1a237e;stop-opacity:1" />
            <stop offset="100%" style="stop-color:#3949ab;stop-opacity:1" />
        </linearGradient>
        
        <!-- 定义速度线条 -->
        <path id="speedLines" d="M0,0 l15,0" />
        
        <!-- 定义赛车 -->
        <path id="car" d="M10 25L20 20H35L40 15H55L60 10H75L85 20V35L80 40H70L65 35V25L60 30H25L20 35V45L15 50H5L0 45V25Z"/>
    </defs>
    
    <!-- 背景圆形 -->
    <circle cx="20" cy="20" r="19" fill="#f5f5f5"/>
    
    <!-- 游戏图标 -->
    <g transform="translate(8,8) scale(0.6)">
        <!-- 主要图形 -->
        <path d="M5 20 L15 10 L25 10 L35 20 L25 30 L15 30 Z" 
              fill="url(#speedGradient)" 
              stroke="#ffffff" 
              stroke-width="2"/>
        
        <!-- 装饰线条 -->
        <line x1="15" y1="15" x2="25" y2="25" stroke="#ff1744" stroke-width="2"/>
        <line x1="25" y1="15" x2="15" y2="25" stroke="#ff1744" stroke-width="2"/>
    </g>
</svg> 